<svg fill="none" height="348" viewBox="0 0 402 348" width="402" xmlns="http://www.w3.org/2000/svg">
    <path
        d="M401.274 203.326C401.274 155.427 384.856 109.483 355.673 74.292C354.761 73.3145 352.937 71.3595 352.025 70.382C315.546 27.3707 260.827 0 200.636 0C143.181 0 90.2861 25.4157 53.807 64.5168C53.807 64.5168 53.807 64.5168 52.8947 64.5168C19.1511 101.663 0 151.517 0 203.326C0 255.135 19.151 304.988 53.807 342.135C61.1025 349.955 72.0466 349.955 79.3421 342.135C86.6383 334.315 86.6383 321.606 79.3421 313.786C52.8947 285.438 37.3914 245.36 37.3914 204.304C37.3914 168.135 49.247 134.899 68.3988 107.528C72.0466 102.64 74.782 98.7302 79.3421 94.8201C80.2544 93.843 81.1659 92.8651 81.1659 91.8879C111.262 58.6517 154.125 39.1011 200.636 39.1011C290.01 39.1011 362.969 113.393 363.881 204.304C363.881 245.36 348.377 285.438 321.018 313.786C313.722 321.606 313.722 334.315 321.018 342.135C328.314 349.955 340.169 349.955 347.465 342.135C382.12 304.988 401.274 256.112 401.274 203.326Z"
        fill="#3A3A3A" />
    <path
        d="M324.665 204.301C324.665 203.324 324.665 203.324 324.665 204.301C324.665 133.919 269.034 77.2227 200.635 77.2227C144.093 77.2227 96.6696 115.347 81.1655 167.155C77.5177 178.885 75.6938 190.616 75.6938 203.324C75.6938 233.627 86.6379 262.953 106.701 284.459C113.997 292.279 125.853 292.279 133.149 284.459C140.445 276.638 140.445 263.93 133.149 256.11C120.381 242.425 113.085 223.851 113.085 204.301C113.085 156.403 154.124 118.279 200.635 118.279C247.147 118.279 288.186 157.38 288.186 204.301C288.186 223.851 280.89 242.425 268.122 256.11C260.826 263.93 260.826 276.638 268.122 284.459C275.418 292.279 286.362 292.279 293.657 284.459C313.722 262.953 324.665 234.605 324.665 204.301Z"
        fill="#3A3A3A" />
    <path
        d="M200.635 260.022C227.834 260.022 249.883 236.389 249.883 207.236C249.883 178.082 227.834 154.449 200.635 154.449C173.437 154.449 151.388 178.082 151.388 207.236C151.388 236.389 173.437 260.022 200.635 260.022Z"
        fill="#3A3A3A" />
</svg>
